<?xml version="1.0" encoding="UTF-8"?>
<svg id="Layer_1" data-name="Layer 1" xmlns="http://www.w3.org/2000/svg" version="1.1" viewBox="0 0 1024 150">
  <defs>
    <style>
      .cls-1 {
        fill: #fff;
        stroke-width: 0px;
      }
    </style>
  </defs>
  <path class="cls-1" d="M935.2,63.2c-2.5-2.2-7.1-1.6-10.5-2.5-4.4-.9-12.2-1.2-4.6,1.9-95-.9-192.1-3.4-286.7-1.4-6.5,1-12.4-.8-18.5.2-7.7,7,13.5,4.6,16.7,4.3,14.6-1.7-17.5,30.7-20.6,25.3-.8-1.7.3-5.8-.3-8.6-1.4-10.6-22.8,15-14.5-.2,2.4-5.4-1-5.5-4.6-2.5-4.7,3.3-11,6.2-16.9,6.5-2.9.1-4.6-3-7.3-2.5-5,2.8-7.2,11.1-13.7,11.1-3.4-.3-2.4-4.8-1.9-7.3,3.1-19.2-14.8,7.9-20.4,9-11.3,5,1-12.3,1.9-15.8,1-3.3,0-7,2.4-9.8,3.9-4.5,21.6-19.2,14.2-24.8-9.7-2.1-29,19.8-35.3,27-5.7,6.2-8.8,13.9-14.7,19.7-4.7,3.3-10.2,6.4-16.1,7.1-10.1-.3-3.1-11.5-2.7-17,.5-5.7-4.5-6.8-8.4-3.9-6.5,4-9.9,11.4-16,15.8-19.2,9.8,1.4-29.6-27.3-8.4-4.1,3.3-6.7,6.8-5.5,0,.5-8.6-6-1.8-9,.7-7.7,6.8-24.8,15.5-11.5-2.6,3.3-6-1.8-4.7-4.2-1.2-2.3,3.1-16.2,17.1-17.3,8.4.5-5.7,3.2-9.1,0-14.3.4-1.6,5.2-5,1.4-5.7-7.1,1-12.7,7.1-17.8,11.9-5.5,6.7-10.9,14-19.4,16.9-6,2.2-7.5-4.4-5.5-8.9,4-8.6,10.9-15.4,15-24.2.9-1.9,3.7-6.3,1.1-7.7-6.9,3.4-13.2,19-17.6,25.8-1.5,5.2-26.7,23.7-22.5,9.3,2.3-6.2,9.9-8.1,13.7-13.4,2.6-3.1,1.6-8.6-2.8-9.2-15.6.5-23.6,18-35.4,25.4-11.8,1.8-24.1,1.8-35.9,3.5-43.5-.2-97.5.8-138.5.2-10.2.3-18.9,1.7-27.2-3.8-1,0-2.1,1-2,2.2.5,2.1,3,2.8,4.9,3.3,9.3,1.7,21.6,1.2,31.3,1.3.5,0,.2,0-.8-.1-2.6-.2-6.6,0-9.2-.3,55.7-1.1,117.6,1.3,174.1-2.7,3,.4,2.9,4.4,5.6,5.6,6.1,2.2,11.6-6.6,16.2-7.4,6.5,8.6,16.6.2,23.5-4.3,3.4-2.2,2,3.8,3.7,6.1,5.9,8.1,14.2-3.9,20.3-2.8,6,3.6,13.5-3,17.9-5.1,3.4,1.5,1.8,7.6,10.3,4.4,3-1.1,5.7-4.2,6.8-3.6.7,1.3.6,3.4,2,4.4,5.7,3.2,15-5.2,19.8-8.2,7.3-5.6,2.4,4.2,3.4,7.4,3.5,6.2,13.9-15.2,21.9-13.9,7.6,2.5-2.6,17.6,14.5,15.6,13,4.5,17.5-10.6,19.9-.8,1.3,3.9,5.4,4.4,9.6,3.9,5-.2,9.5-4.3,14.2-5.3,1.3,0,1,2.3,1.6,3.5,2.1,2.6,5.3-3.7,6.4-5.3,1.2-3.2,20.4-19.9,22.4-15.1-.3,4.8-12.5,19.8-3,21.6,2.8,0,5.1-1.7,7.4-3.3,5-3.1,9-8.1,13.5-11.7,2.5.3-3.3,9.8,3.5,11.7,7.3,2.1,11.9-6.6,18-8.5,7.6,1.5,12.4-2.6,19.5-4.1,3.4,1.9-6.9,11.4-4.7,14.5.8,1.1,2.4.2,3.4-.5,4.9-4.7,9.5-9.6,15.3-13.3,7.6-5.4,3.7,5.1,5.6,8.7,4.4,8.9,24.1-19.4,17.8-5.4-1.7,4.5-3.8,8.8-3.8,13.5,2.1,21.6,32.9-11.1,20-2.2-29.5,21.6-8.8-19.3-1.9-29.8,2-4.4,5.8-7,10.7-7,62.1-1.6,124.4-1.9,186.6-.4,24.7.7,49.6.9,74.4,1.7,8.6-.3,25.5,1.8,24.3-2.2l-.2-.4ZM399.1,89.6l-.9.8c-.4-.3,0-1.4.9-.8ZM351.2,73c-.3,1.3-1.8,3.2-2.9,3.9,0-1.1,1.7-3.6,2.9-4h0ZM304.6,87.6c.1,0,.3.2.5.4-.3.2-.4.3-.6.4-.2-.3-.3-.7,0-.9h0ZM311.4,94.5c-3.6,2.9-7.8,7.4-12.5,8.7-2.8.5-4.1-.7-2.2-3.2,2.5-2.7,7.2-2.6,10.3-4.3.9-.3,7.4-3.7,4.4-1.2h0ZM311.7,91.7c-1.6.8-16.7,7.6-10.4,1.7,6.6-6.2,12.3-13.5,20.8-17.2,5.7-3.6,13.3-1.3,6.7,5.7-1.5,1.6-3.1,2.8-3.3,2.4,1.2-4.4-1.8-5.2-4.4-1.8-2.5,3.5-5.2,7.7-9.4,9.2ZM380,92c-.4-.8.5-2-.5-2.7,0-1.1,1.1.2,1,.9,0,.5-.2,1.5-.6,1.8h.1ZM380.8,80.1c2,5.6-18.7,22.3-18.2,14.2,1.4-4.8,6.2-7.7,9.9-10.7,1.7-.9,8.5-8,8.3-3.5ZM396.6,94.5c-.3.4-1.2.4-1.1-.2.4,0,.7-.1,1.1-.2,0,0,.1.3,0,.4ZM445,83.9c-.4,0-1.5-.8-1-1.2.9.2,1.3.1,1,1.2ZM466.8,88.4c2-1.4,9.4-9.7,11.4-8.3.4,2-14.6,12.1-11.4,8.3h0ZM477,85.9c-2,2.4-4.6,4.7-7,6.7-.7.7-10.5,6.5-8.6,3.2,4.4-3.9,9.7-6.4,14.6-10,.6-.5,2-.7,1,.1ZM520.6,80.5c0-.3-.2-.6-.3-.9,0,0,.3-.1.4-.2,0,.3.3.5.4.8-.2,0-.3.2-.5.3ZM528.4,74.8c-2.7,1.4-5.5,2.7-8.3,4.3-2,.6-15.9,13.2-10.2,5.2,9.2-13,23.9-32.4,39.8-35.6,4.4,3.9-16.8,25-21.4,26.1h0Z"/>
  <path class="cls-1" d="M402.5,46.1c-2,.3-3.7-1.8-4.3-3.5,0-.7,1-1.1,1.3-1.8.4-.7.4-1.8,1.1-1.9,2.9.7,6.4,5.9,2.2,7.3-.1,0-.2,0-.3-.1Z"/>
  <path class="cls-1" d="M468.3,91.1"/>
</svg>