<svg width="34" height="13" viewBox="0 0 34 13" fill="none" xmlns="http://www.w3.org/2000/svg">
<path d="M27.3643 12.2045C26.5866 12.2045 26.0696 11.4002 26.4201 10.7059C26.6436 10.2631 26.8634 9.85117 27.0794 9.47023C27.5541 8.689 28.013 8.03797 28.456 7.51715H1.80722C1.24093 7.51715 0.78186 7.05808 0.78186 6.49179C0.78186 5.9255 1.24093 5.46643 1.80722 5.46643H28.456C28.013 4.91306 27.5541 4.24576 27.0794 3.46453C26.8683 3.09229 26.6537 2.69419 26.4354 2.27022C26.0816 1.58305 26.5914 0.779053 27.3643 0.779053C29.3579 3.15529 31.4465 4.91306 33.6301 6.05235V6.93123C31.4465 8.03797 29.3579 9.79574 27.3643 12.2045Z" fill="#1C03E1"/>
</svg>
