{
	"asset":{
		"generator":"Khronos glTF Blender I/O v3.6.28",
		"version":"2.0"
	},
	"scene":0,
	"scenes":[
		{
			"name":"Scene",
			"nodes":[
				0
			]
		}
	],
	"nodes":[
		{
			"mesh":0,
			"name":"flutedmd",
			"translation":[
				0,
				0.7356167435646057,
				0.005810307338833809
			]
		}
	],
	"meshes":[
		{
			"name":"flutedmd",
			"primitives":[
				{
					"attributes":{
						"POSITION":0,
						"NORMAL":1,
						"TEXCOORD_0":2
					},
					"indices":3
				}
			]
		}
	],
	"accessors":[
		{
			"bufferView":0,
			"componentType":5126,
			"count":12936,
			"max":[
				1.3486233949661255,
				0.5400000810623169,
				0.016144288703799248
			],
			"min":[
				-1.3486230373382568,
				-0.5400000810623169,
				-0.02647184021770954
			],
			"type":"VEC3"
		},
		{
			"bufferView":1,
			"componentType":5126,
			"count":12936,
			"type":"VEC3"
		},
		{
			"bufferView":2,
			"componentType":5126,
			"count":12936,
			"type":"VEC2"
		},
		{
			"bufferView":3,
			"componentType":5123,
			"count":77112,
			"type":"SCALAR"
		}
	],
	"bufferViews":[
		{
			"buffer":0,
			"byteLength":155232,
			"byteOffset":0,
			"target":34962
		},
		{
			"buffer":0,
			"byteLength":155232,
			"byteOffset":155232,
			"target":34962
		},
		{
			"buffer":0,
			"byteLength":103488,
			"byteOffset":310464,
			"target":34962
		},
		{
			"buffer":0,
			"byteLength":154224,
			"byteOffset":413952,
			"target":34963
		}
	],
	"buffers":[
		{
			"byteLength":568176,
			"uri":"flutedmd.bin"
		}
	]
}
