{
	"asset":{
		"generator":"Khronos glTF Blender I/O v3.6.28",
		"version":"2.0"
	},
	"scene":0,
	"scenes":[
		{
			"name":"Scene",
			"nodes":[
				0
			]
		}
	],
	"nodes":[
		{
			"mesh":0,
			"name":"flutedglass",
			"translation":[
				0,
				0.6821281909942627,
				0
			]
		}
	],
	"materials":[
		{
			"doubleSided":true,
			"name":"Material.004",
			"pbrMetallicRoughness":{}
		}
	],
	"meshes":[
		{
			"name":"flutedglass",
			"primitives":[
				{
					"attributes":{
						"POSITION":0,
						"NORMAL":1,
						"TEXCOORD_0":2
					},
					"indices":3,
					"material":0
				}
			]
		}
	],
	"accessors":[
		{
			"bufferView":0,
			"componentType":5126,
			"count":15384,
			"max":[
				1,
				0.5400000214576721,
				0.012500000186264515
			],
			"min":[
				-1,
				-0.5400000214576721,
				-0.03500000014901161
			],
			"type":"VEC3"
		},
		{
			"bufferView":1,
			"componentType":5126,
			"count":15384,
			"type":"VEC3"
		},
		{
			"bufferView":2,
			"componentType":5126,
			"count":15384,
			"type":"VEC2"
		},
		{
			"bufferView":3,
			"componentType":5123,
			"count":29796,
			"type":"SCALAR"
		}
	],
	"bufferViews":[
		{
			"buffer":0,
			"byteLength":184608,
			"byteOffset":0,
			"target":34962
		},
		{
			"buffer":0,
			"byteLength":184608,
			"byteOffset":184608,
			"target":34962
		},
		{
			"buffer":0,
			"byteLength":123072,
			"byteOffset":369216,
			"target":34962
		},
		{
			"buffer":0,
			"byteLength":59592,
			"byteOffset":492288,
			"target":34963
		}
	],
	"buffers":[
		{
			"byteLength":551880,
			"uri":"flutedglassgltf.bin"
		}
	]
}
