<?xml version="1.0" encoding="UTF-8"?><svg id="uuid-8c94e97a-bf37-446e-97c8-a58ac50a9705" xmlns="http://www.w3.org/2000/svg" viewBox="0 0 36 34.01"><defs><style>.uuid-ce1d2bae-ef0c-4d28-b853-042696ec1aa7{fill:#d7c6b8;}.uuid-ce1d2bae-ef0c-4d28-b853-042696ec1aa7,.uuid-3821adc1-4095-493b-8cb6-63837477ddf9{stroke-width:0px;}.uuid-3821adc1-4095-493b-8cb6-63837477ddf9{fill:#fff;}</style></defs><g id="uuid-4353ee4d-c32e-48a3-9316-003ba987386e"><path class="uuid-3821adc1-4095-493b-8cb6-63837477ddf9" d="M17.48,11.79c.16,1.06.24,2.13.26,3.21-.06,1.69-.49,3.35-1.26,4.87-.77,1.51-1.86,2.84-3.19,3.89-1.08.84-2.05,1.84-3.06,2.78-.25.28-.48.57-.69.87.26-.06.38-.05.42-.1,1.73-1.92,4-2.84,6.33-3.74,1.77-.69,3.49-1.49,5.14-2.41,1.39-.81,1.28-.87.97-2.53-.31-1.61-.53-3.23-.66-4.87-.07-.84,0-1.68.2-2.49.08-.39.29-.74.6-.99.13-.11.28-.2.45-.26-.02.99.03,1.98.14,2.96.43,2.45.94,4.88,1.53,7.27.16.49.19,1.01.08,1.51-.11.5-.36.96-.71,1.33-4.88,4.99-10.91,8.72-17.56,10.86-.15.05-.3.07-.46.06-.16-.01-.31-.06-.44-.14-1.82-1.43-3.62-2.88-5.56-4.42l1.83-.19c1.78-.16,3.59-.34,5.07-1.44.82-.64,1.55-1.4,2.15-2.26,2.4-3.33,2.21-3.77,4.43-6.49,1.57-1.92,2.2-3,2.38-3.55.41-1.42.07-2.53.96-3.34.2-.17.43-.3.68-.38h0Z"/><path class="uuid-3821adc1-4095-493b-8cb6-63837477ddf9" d="M25.46,14.21c.02.56.06.95.14,1.73.11,1.05.18,1.38.23,2.23.04.49.03.98-.02,1.47-.08.7-.32,1.36-.71,1.95,0-.23,0-.45-.02-.68-.06-.46-.16-.91-.3-1.35-.06-.18-.13-.57-.3-1.35-.13-.59-.29-1.44-.43-2.55l-.16-1.24c.04-.66.1-1.22.15-1.68,0,0,.13-1.13.28-1.82l.07-.34.06-.23c.39-1.56.87-1.99,1.11-2.15.17-.13.36-.24.56-.32-.17,1.15-.34,2.35-.52,3.59-.13.91-.17,1.82-.14,2.74Z"/><path class="uuid-3821adc1-4095-493b-8cb6-63837477ddf9" d="M27.33,18.36c.02-.23.03-.42.04-.53.04-.7-.03-.99.04-1.57.02-.2.06-.39.11-.58l.44-.45c.67-.6,1.37-1.18,2.09-1.71.8-.66,1.19-1.09,2.05-1.75.3-.2.61-.38.93-.54.26-.18.57-.28.89-.29.24.02.47.13.64.29-.4.34-1.03.89-1.75,1.6-.4.41-.69.73-.78.83-.58.63-1.83,1.93-4.71,4.69Z"/><path class="uuid-3821adc1-4095-493b-8cb6-63837477ddf9" d="M29.67,7.85c-.31.77-.58,1.4-.77,1.86-.14.34-.21.55-.31.84-.1.29-.25.77-.53,1.79l-.5,1.92c-.25.97-.38,1.46-.4,1.58-.1.69-.15,1.4-.15,2.1.03.35-.02.7-.13,1.03-.08.18-.18.36-.29.52-.17.27-.35.54-.54.8.03-.21.08-.5.1-.85.02-.35.06-.98.06-1.17,0-.59-.22-1.6-.26-3.66.04-.5.15-1,.32-1.47l.17-.52.17-.48.39-1.09c.48-1.31.85-2.3,1.73-2.84.29-.18.62-.31.97-.36Z"/><path class="uuid-3821adc1-4095-493b-8cb6-63837477ddf9" d="M13.42,24.24c.88-.66,1.67-1.43,2.34-2.31.29-.42.56-.87.8-1.33.98.24,2.01.25,3,.03.99-.22,1.91-.66,2.71-1.29.03.12.05.24.05.37.02.16-.01.33-.09.48-.05.08-.11.14-.18.2-.22.17-.46.31-.72.42-.37.21-.77.37-1.16.57-.39.2-1.19.59-2.1.99-1.08.47-1.33.5-2.75,1.06-.81.35-1.48.65-1.89.83Z"/><path class="uuid-ce1d2bae-ef0c-4d28-b853-042696ec1aa7" d="M34.04,0c.52.01,1.01.22,1.37.59.37.37.58.86.59,1.37,0,.52-.21,1.02-.57,1.39-.37.37-.87.57-1.39.57-.25,0-.5-.04-.74-.13-.24-.09-.45-.23-.63-.4-.18-.17-.33-.38-.43-.61-.1-.23-.16-.48-.16-.73v-.08c0-.26.05-.51.15-.75.1-.24.24-.45.42-.64.18-.18.4-.33.64-.43.24-.1.49-.15.75-.15h0Z"/></g></svg>