<svg width="281" height="260" viewBox="0 0 281 260" fill="none" xmlns="http://www.w3.org/2000/svg">
<path d="M148.205 84.1105C149.335 91.6846 149.952 99.3261 150.055 106.983C149.6 119.069 146.526 130.912 141.045 141.692C135.563 152.473 127.805 161.935 118.308 169.422C110.604 175.417 103.683 182.548 96.5051 189.234C94.7416 191.196 93.1087 193.271 91.617 195.446C93.472 194.99 94.2985 195.063 94.6382 194.698C106.978 181.027 123.196 174.439 139.753 168.036C152.36 163.15 164.619 157.41 176.444 150.857C186.391 145.114 185.575 144.653 183.351 132.802C181.156 121.327 179.574 109.744 178.613 98.101C178.141 92.1451 178.614 86.1521 180.013 80.3436C180.599 77.5795 182.093 75.091 184.258 73.2743C185.196 72.4736 186.273 71.8517 187.436 71.4395C187.296 78.4953 187.64 85.5523 188.465 92.5611C191.504 110.058 195.135 127.354 199.356 144.451C200.511 147.916 200.697 151.631 199.894 155.194C199.091 158.757 197.329 162.032 194.799 164.666C159.965 200.277 116.975 226.857 69.5516 242.105C68.507 242.48 67.3939 242.627 66.2878 242.534C65.1816 242.442 64.1083 242.113 63.1406 241.569C50.1506 231.4 37.287 221.009 23.4924 210.033L36.5221 208.675C49.234 207.501 62.1207 206.226 72.666 198.4C78.533 193.809 83.6938 188.381 87.9832 182.29C105.11 158.525 103.739 155.418 119.556 135.99C130.729 122.315 135.271 114.586 136.514 110.648C139.407 100.504 137 92.5923 143.37 86.8175C144.804 85.6301 146.443 84.7129 148.205 84.1105V84.1105Z" fill="black"/>
<path d="M205.113 101.36C205.285 105.328 205.521 108.158 206.076 113.707C206.84 121.231 207.374 123.55 207.681 129.623C207.953 133.115 207.916 136.625 207.571 140.11C206.992 145.071 205.262 149.828 202.519 154.002C202.582 152.384 202.531 150.763 202.367 149.153C201.958 145.89 201.237 142.674 200.213 139.549C199.813 138.233 199.277 135.471 198.106 129.918C197.211 125.689 196.041 119.627 195.066 111.737L193.959 102.884C194.278 98.1881 194.66 94.1537 195.017 90.9182C195.017 90.9182 195.923 82.8738 197.007 77.926L197.52 75.5113L197.922 73.8596C200.708 62.7595 204.156 59.6673 205.828 58.4901C207.03 57.5315 208.369 56.7584 209.8 56.1966C208.59 64.4237 207.352 72.9703 206.087 81.8363C205.188 88.3029 204.862 94.8362 205.113 101.36Z" fill="black"/>
<path d="M218.44 130.975C218.597 129.338 218.688 127.992 218.705 127.177C218.963 122.156 218.485 120.08 218.963 115.991C219.135 114.594 219.39 113.21 219.725 111.843L222.888 108.661C227.656 104.348 232.638 100.277 237.815 96.4625C243.556 91.7283 246.314 88.6528 252.436 83.9534C254.553 82.5031 256.779 81.218 259.094 80.1095C260.96 78.8213 263.164 78.1088 265.432 78.0604C267.152 78.2362 268.766 78.9709 270.029 80.1518C267.172 82.5427 262.716 86.4929 257.563 91.5863C254.706 94.528 252.654 96.7719 252.032 97.4916C247.865 102.016 238.948 111.232 218.44 130.975Z" fill="black"/>
<path d="M235.097 55.977C232.864 61.5034 230.977 65.9405 229.631 69.2601C228.665 71.6608 228.114 73.1653 227.4 75.2303C226.685 77.2954 225.624 80.7047 223.613 88.0098L220.046 101.721C218.234 108.637 217.3 112.12 217.172 112.999C216.427 117.952 216.078 122.957 216.13 127.965C216.344 130.45 216.018 132.951 215.173 135.297C214.59 136.599 213.892 137.846 213.087 139.023C211.891 140.984 210.597 142.883 209.211 144.714C209.451 143.22 209.785 141.12 209.931 138.621C210.077 136.121 210.332 131.609 210.349 130.244C210.357 126.002 208.759 118.831 208.496 104.174C208.815 100.594 209.575 97.0663 210.759 93.6724L211.942 89.9598L213.135 86.559L215.884 78.8068C219.311 69.4767 221.96 62.3963 228.199 58.5611C230.3 57.2423 232.647 56.3632 235.097 55.977Z" fill="black"/>
<path d="M119.247 172.884C125.54 168.199 131.148 162.658 135.908 156.422C138.009 153.394 139.915 150.235 141.612 146.963C148.632 148.659 155.947 148.729 162.999 147.169C170.051 145.609 176.654 142.46 182.304 137.961C182.528 138.821 182.648 139.706 182.659 140.595C182.791 141.762 182.573 142.943 182.033 143.986C181.675 144.524 181.239 145.005 180.737 145.412C179.164 146.62 177.438 147.616 175.605 148.375C172.967 149.898 170.091 151.008 167.339 152.406C164.587 153.804 158.862 156.622 152.341 159.455C144.65 162.794 142.824 163.043 132.753 166.993C127.011 169.524 122.22 171.612 119.247 172.884Z" fill="black"/>
<path class="ball" d="M266.282 0C269.965 0.0821598 273.475 1.58215 276.081 4.1876C278.686 6.79305 280.186 10.3031 280.269 13.9869C280.269 17.6964 278.795 21.254 276.172 23.8771C273.549 26.5001 269.991 27.9737 266.282 27.9737C264.482 28.0115 262.693 27.6944 261.016 27.0404C259.339 26.3865 257.807 25.4086 256.509 24.1626C255.21 22.9166 254.169 21.4269 253.446 19.7786C252.723 18.1303 252.332 16.3557 252.295 14.5562C252.295 14.3664 252.295 14.183 252.295 14.0058C252.292 12.1675 252.652 10.3466 253.354 8.64746C254.056 6.94831 255.086 5.40417 256.385 4.10336C257.684 2.80255 259.227 1.7706 260.925 1.0665C262.623 0.362413 264.443 -1.69227e-06 266.282 0V0Z" fill="#D7C6B8"/>
</svg>

