<?xml version="1.0" encoding="UTF-8"?><svg id="uuid-c717bb90-e481-4cef-bd28-bbf6f9d3166c" xmlns="http://www.w3.org/2000/svg" viewBox="0 0 846.7 71.71"><defs><style>.uuid-79be3d9a-2710-47df-b75b-1cb9c79ed5f3{fill:#fff;stroke-width:0px;}</style></defs><g id="uuid-fa795d6d-a085-47e0-8c44-4f48b0f7ace5"><path class="uuid-79be3d9a-2710-47df-b75b-1cb9c79ed5f3" d="M846.57,24.27c-2.49-2.23-7.14-1.58-10.47-2.46-4.38-.87-12.17-1.18-4.57,1.9.12.18-.49.3-1.66.37-4.41.17-9-.21-13.39-.27-10.37-.3-20.63-.57-31.18-.54-20.1.05-39.71-1.03-59.83-1.25-25.79-.7-51.6-.11-77.42-.43-20.73.24-41.43.53-62.18.54-5.07.18-10.29.08-15.43.08-4.27.04-8.55.71-12.53-1.03-4.31-1.74-8.62,1.54-13.08,1.2-3.69-.03-7.49.62-10.79.16-2.44-.24-5.37-1-7.69-.06-1.34.6-2.45,1.95-1.46,3.2.89,1.1,2.72,1.46,4.14,1.59,4.57.28,9.56-.14,14.1-.55,1.36-.06,3.15-.16,3.77,1.14.31.98-.12,2.41-.69,3.46-2.14,4.14-5.22,8.03-8.7,11.48-1.92,1.42-13.38,13.06-15,9.15-.83-1.66.26-5.85-.32-8.6-1.09-5.03-5.15-2.09-8.42.15-4.59,2.91-11.57,8.96-6.06-.32,2.36-5.38-1.03-5.49-4.6-2.53-3.42,2.63-7.48,4.18-11.71,5.6-1.66.5-3.48,1-5.22.89-2.02-.07-3.66-1.43-5.18-2.16-.72-.34-1.41-.51-2.1-.34-1.44.36-2.53,1.8-3.43,2.98-2.65,3.65-5.69,7.91-10.31,8.13-3.39-.32-2.42-4.77-1.91-7.33,1.57-6.39-.56-9.43-5.43-4.65-4.88,4.81-9.1,10.39-14.97,13.64-4.47,2.62-5.67.28-3.97-3.9,1.47-4.31,4.48-7.71,5.93-11.88.96-3.33.03-6.98,2.44-9.83,3.92-4.53,21.6-19.24,14.22-24.83-9.71-2.1-29.03,19.77-35.29,27-3.08,3.82-5.85,7.58-8.52,11.5-1.82,2.82-3.47,6.09-6.17,8.24-4.73,3.28-10.22,6.39-16.08,7.07-10.09-.33-3.12-11.49-2.71-17.03.49-5.74-4.5-6.82-8.44-3.95-6.49,3.98-9.95,11.38-16.03,15.79-2.54,1.73-6.62,2.59-8.56-.34-1.86-2.75-.84-7.17-1.52-10.32-2.37-8.54-13.02-1.19-17.21,2.17-4.06,3.29-6.66,6.85-5.48.09.48-8.58-5.96-1.77-8.98.7-4.41,2.97-9.46,8.17-15.28,8.3-3.86-1.58,2.7-8.57,3.82-10.87,3.27-5.99-1.79-4.71-4.19-1.2-2.34,3.14-16.24,17.1-17.29,8.43.02-3.16,1.72-6.39,1.72-9.59.02-2.55-1.98-3.7-1.72-4.73.42-1.56,5.17-5.04,1.39-5.74-7.09,1.04-12.71,7.14-17.77,11.86-2.56,2.58-4.48,5.68-6.87,8.39-3.43,3.74-7.85,6.67-12.5,8.5-6,2.21-7.47-4.43-5.52-8.94,1.24-3.55,3.71-6.57,5.92-9.58,3.44-4.51,6.29-9.53,9.11-14.56.89-1.93,3.74-6.3,1.09-7.66-2.17.01-3.86,3.05-5.04,4.74-2.82,4.06-5.21,7.81-7.68,12.14-1.8,2.93-3.22,6.06-4.94,9.04-2.52,4.61-6.97,8.01-11.58,10.83-3.84,2.69-14.34,7.84-10.93-1.53,2.35-6.22,9.87-8.11,13.72-13.44,2.61-3.14,1.58-8.57-2.82-9.2-4.16-.58-8,1.93-11.46,4.1-6.58,4.31-12.27,10.13-17.38,15.98-1.89,2.1-3.85,4.27-6.53,5.32-3.9,1.47-8.4.89-12.52,1.14-8.12.26-15.47,1.96-23.42,2.41-7.53.44-15.31,0-22.86.18-12.09.3-24.59-1.1-36.62-.21-24.97.51-58.56.68-79.04.19-8.8-.24-16.62,2.12-24.02-2.07-1-.69-1.96-1.73-3.2-1.69-1.02-.01-2.15,1-2.05,2.19.46,2.06,3.04,2.84,4.93,3.33,9.25,1.74,21.58,1.21,31.31,1.31.5-.04.23-.08-.85-.12-2.56-.15-6.59.08-9.2-.32,3.21-.4,11.01-.28,15.38-.33,36.54.02,81.31-.34,119.22.32,12.99-.5,26.51-4.13,39.51-2.71,3.03.39,2.89,4.45,5.57,5.59,4.04,1.17,7.89-1.85,10.96-4.25,2.23-1.66,3.66-3.65,5.2-3.2,1.39.78,2.03,2.53,3.58,3.23,6.91,2.43,14.1-3.77,19.85-7.5,3.43-2.16,2.03,3.79,3.67,6.11,3.07,5.03,9.83,1.88,13.72-.61,2.62-1.62,4.16-3,6.63-2.24,3.71,1.78,7.73.93,11.22-1.09,2.64-1.27,5.41-3.85,6.74-4,1.26-.08,1.49,1.44,2.05,2.35,1.31,3.33,5.32,3.4,8.16,2,3.03-1.14,5.67-4.17,6.83-3.58.69,1.34.58,3.41,2.01,4.39,5.75,3.16,14.95-5.2,19.79-8.25,7.32-5.57,2.35,4.23,3.4,7.43,1.47,3.28,5.18-.69,6.6-2.29,4.28-4.84,8.63-11.02,15.26-11.64,2.51.07,3,3,3.09,5.05.11,2.96.43,6.21,2.41,8.6,2.25,2.66,5.97,1.82,9.03,1.92,7.17,1.16,9.11,1.42,15.27-3.26,3.11-2.28,3.66-.39,4.63,2.47,1.26,3.88,5.43,4.43,9.59,3.87,5.05-.22,9.47-4.25,14.23-5.26,1.26.04.97,2.25,1.57,3.52,2.12,2.64,5.28-3.68,6.41-5.27,3.21-5.06,8.64-8.75,13.69-12.25,1.83-.97,7.69-5.99,8.66-2.82-.35,4.82-12.46,19.78-3.05,21.59,2.8.04,5.12-1.7,7.41-3.29,4.97-3.08,9.05-8.07,13.52-11.67,2.48.35-3.27,9.81,3.53,11.72,4.64.95,9.32-1.88,12.79-5.3,1.49-1.5,3.09-2.98,5.22-3.17,2.78-.27,5.55.79,8.32-.2,3.3-.82,7.37-3.73,11.17-3.95,2.47.56-1.65,5.74-2.23,7.3-.93,1.9-3.67,5.47-2.5,7.22.75,1.06,2.39.21,3.36-.52,4.93-4.66,9.45-9.61,15.32-13.28,7.55-5.41,3.75,5.07,5.62,8.67,4.42,8.87,24.09-19.37,17.81-5.39-1.68,4.47-3.83,8.76-3.85,13.5.68,12.39,13.7,6.59,19.29.91,1.48-1.34,3.28-2.96,3.96-4.74.12-.84-1.37,0-3.26,1.59-2.25,1.9-4.5,3.61-7.28,4.97-16.21,6.78-4.39-17.66-.84-23.31,2.07-3.82,4.11-7.63,6.18-11.48,1.96-4.37,5.82-7.03,10.71-6.99,62.14-1.63,124.38-1.88,186.6-.4,24.74.75,49.62.93,74.39,1.7,8.56-.3,25.5,1.8,24.32-2.24l-.07-.11ZM310.43,50.68l-.86.85c-.06-.06-.12-.12-.18-.17.24-.33.09-1,1.04-.67ZM262.52,34.14c-.34,1.35-1.77,3.17-2.91,3.88.06-1.14,1.72-3.58,2.88-3.97l.03.09ZM215.94,48.71c.14,0,.28.21.52.42-.27.19-.44.31-.61.43-.09-.16-.26-.33-.25-.48.01-.14.22-.38.33-.37ZM222.73,55.59c-2.33,1.86-4.75,4.43-7.57,6.09-1.56,1.07-3.05,2.42-4.92,2.59-2.75.51-4.1-.71-2.19-3.15,2.53-2.68,7.15-2.55,10.3-4.31.69-.18,7.18-3.53,4.58-1.36l-.2.15ZM223.09,52.81c-1.57.84-16.68,7.64-10.43,1.68,6.59-6.21,12.27-13.47,20.81-17.2,2.44-1.03,5.84-2.78,8.26-1.11,2.11,1.77.33,4.94-1.58,6.75-1.53,1.55-3.13,2.79-3.34,2.44-.12-.2-.01-.43.03-.72,1.29-4.3-2.47-3.89-4.36-1.13-2.38,3.65-5.06,7.33-9.14,9.16l-.25.13ZM291.38,53.09c-.3-.2.04-.98.09-1.33.22-.6-.19-.96-.51-1.37.05-1.15,1.11.19,1.02.88.04.55-.28,1.3-.49,1.76l-.11.07ZM292.15,41.22c-.2,2.79-1.32,5.31-3.24,7.51-1.07,2.1-16.17,13.71-14.98,6.72,1.44-4.76,6.24-7.66,9.9-10.71,1.57-.83,8.11-7.71,8.32-3.76v.24ZM307.92,55.6c-.34.31-.73.43-1.13.12-.02-.11-.04-.22-.06-.33.37-.06.73-.12,1.1-.15.02,0,.13.32.08.37ZM356.34,45.05c-.09,0-.18.02-.28.03-.3-.29-.6-.58-.9-.87.06-.11.11-.21.17-.32.38.1.79.15,1.12.34.09.05-.07.54-.11.82ZM378.17,49.52c1.96-1.44,9.36-9.67,11.43-8.32-1.42,3.18-5.15,5-7.84,7.12-.6.23-5.87,3.76-3.77,1.37l.18-.17ZM388.39,46.98c-2.01,2.41-4.55,4.68-6.98,6.75-.66.68-10.52,6.5-8.64,3.17,1.29-1.73,3.51-2.69,5.31-3.84,2.92-1.67,6.1-4.26,9.27-6.15.47-.27,1.85-.88,1.17-.06l-.12.14ZM431.98,41.59c-.11-.3-.21-.6-.32-.9.13-.06.26-.11.38-.17.14.27.29.54.43.81-.17.09-.33.17-.5.26ZM439.78,35.95c-2.67,1.44-5.53,2.67-8.28,4.32-2.05.6-15.92,13.16-10.22,5.18,7.39-10.98,15.59-20.87,26.21-28.74,2.97-2.43,5.9-4.35,9.32-6.03,1.2-.61,3.11-1.61,4.27-.95,4.46,3.9-16.7,24.64-21.05,26.08l-.25.14Z"/><path class="uuid-79be3d9a-2710-47df-b75b-1cb9c79ed5f3" d="M313.82,7.23c-1.97.27-3.7-1.85-4.32-3.51-.03-.67.97-1.13,1.32-1.84.41-.69.45-1.84,1.07-1.88,1.32.23,2.26,1.64,3.3,2.45,1.52,1.43,1.04,4.42-1.12,4.76l-.25.02Z"/></g></svg>